<?xml version="1.0" encoding="UTF-8"?>
<!-- Generator: Adobe Illustrator 19.1.0, SVG Export Plug-In . SVG Version: 6.00 Build 0)  -->
<svg version="1.1" id="Layer_1" xmlns="http://www.w3.org/2000/svg" xmlns:xlink="http://www.w3.org/1999/xlink" x="0px" y="0px" viewBox="0 0 935.4 232.6" style="enable-background:new 0 0 935.4 232.6;" xml:space="preserve">
<style type="text/css">
	.st0{fill:#666666;}
	.st1{opacity:0.91;fill:url(#SVGID_1_);}
	.st2{opacity:0.68;fill:url(#SVGID_2_);}
</style>
<g>
	<path class="st0" d="M328.1,48.9c14.3,0,25.3,7.1,31.8,14.7l-5,5.6c-6.7-7.4-15.6-12.5-26.8-12.5c-26.8,0-43.5,21.4-43.5,55.4   s16.6,56,42.8,56c12.6,0,22.1-5,31.1-15.1l5,5.4C354.2,169.3,343,176,327,176c-30.1,0-51.3-24.7-51.3-63.8   C275.7,73.3,296.9,48.9,328.1,48.9z"/>
	<path class="st0" d="M386.9,40h8.2v122.9c0,3.9,1.7,5.8,3.9,5.8c0.7,0,1.5,0,3.4-0.4l1.5,6.7c-1.7,0.6-3.3,0.9-5.9,0.9   c-7.3,0-11-4.5-11-14.1V40z"/>
	<path class="st0" d="M483.7,117.7c0.4-13.6-3.5-28.3-21-28.3c-12.1,0-22.5,6-28.5,10.4l-3.7-6.1c6.3-4.5,18.6-11.5,33.1-11.5   c21.2,0,28.3,15.3,28.3,34.4v57.1H485l-0.9-11.5h-0.4c-9.1,7.3-19.9,13.8-31.6,13.8c-14.1,0-26-7.6-26-24.6   C426,131.7,444,122.2,483.7,117.7z M453.3,168.9c10.2,0,19.3-5,30.3-14.5v-30.3c-36.6,4.3-49.1,12.8-49.1,27   C434.6,163.9,443.1,168.9,453.3,168.9z"/>
	<path class="st0" d="M523.9,84.4h7.1l0.7,13.8h0.6c8-9.1,18.2-16,28.1-16c14.3,0,21.6,7.3,24.7,18.2c10.2-11.2,20.1-18.2,30.3-18.2   c17.9,0,26.8,11.2,26.8,34.2v57.3h-8.4v-56.2c0-19-6.3-27.9-19.9-27.9c-8.4,0-16.9,5.6-26.8,16.7v67.3h-8.2v-56.2   c0-19-6.3-27.9-20.1-27.9c-8,0-16.9,5.6-26.8,16.7v67.3h-8.2V84.4z"/>
	<path class="st0" d="M697,110.3l-34.2-59.1h9.3l20.3,36.1c3.2,5.6,5.8,10,9.9,16.7h0.7c3.5-6.7,6-11.2,9.1-16.7l20.1-36.1h8.7   l-34.2,59.5l36.8,63.1h-9.3l-21.4-37.6c-3.3-6.1-6.9-12.1-11.2-19.5H701c-3.9,7.4-7.3,13.4-10.6,19.5l-21.2,37.6h-8.7L697,110.3z"/>
	<path class="st0" d="M820,131.7h-48.5l-14.3,42h-8.7l43.3-122.6h8.6l43.2,122.6h-9.1L820,131.7z M817.6,124.4l-7.8-22.9   c-4.8-14.5-9.3-27.3-13.6-42.4h-0.7c-4.3,15.1-8.6,27.9-13.6,42.4l-7.8,22.9H817.6z"/>
	<path class="st0" d="M842.3,51.1h9.1l22.7,71.6c4.7,14.9,7.8,26.2,12.8,41.1h0.7c5-14.9,8.4-26.2,13-41.1l22.7-71.6h8.6l-40,122.6   h-9.3L842.3,51.1z"/>
</g>
<radialGradient id="SVGID_1_" cx="138.8531" cy="-489.8392" r="105.5942" gradientTransform="matrix(0.9787 0.2054 -0.2054 0.9787 -123.7515 567.765)" gradientUnits="userSpaceOnUse">
	<stop offset="0" style="stop-color:#2C7EA6"/>
	<stop offset="1" style="stop-color:#36A9E1"/>
</radialGradient>
<path class="st1" d="M208.7,172.6c4.5-35.4-36-57.5-51-64.4C177.1,84,207.4,88.1,216.3,90c1.4,0.3,2.2,0.5,2.2,0.5l3.8,1.1l-2.4-3.1  c-6.4-8.3-15.4-13.7-26.7-16.1c-20.9-4.4-44.4,2.8-54.9,6.7c-3.9-36,30.2-55.4,30.6-55.6l3.5-1.9l-3.9-0.5  c-35.4-4.5-57.5,36-64.4,51C75.9,49.3,86.3,11.5,86.4,11.1l1.1-3.8l-3.1,2.4c-28.2,21.8-15.2,66.1-9.4,81.6  c-5.5,0.6-10.9,0.3-16.1-0.7l0,0C33.2,85.2,19.5,61,19.3,60.8l-1.9-3.5l-0.5,3.9c-4.5,35.4,36,57.5,51,64.4  c-19.5,24.2-49.7,20.1-58.7,18.2c-1.4-0.3-2.2-0.5-2.2-0.5l-3.8-1.1l2.4,3.1c6.4,8.3,15.4,13.7,26.7,16.1l0,0  c20.9,4.4,44.4-2.8,54.9-6.7c3.9,36-30.2,55.4-30.6,55.6l-3.5,1.9l3.9,0.5c35.4,4.5,57.5-36,64.4-51c28.2,22.7,17.8,60.5,17.7,60.9  l-1.1,3.8l3.1-2.4c28.2-21.8,15.2-66.1,9.4-81.6c5.5-0.6,10.9-0.3,16.1,0.7c25.6,5.4,39.4,29.6,39.5,29.8l1.9,3.5L208.7,172.6z   M114.9,125.6c-2.3,0.6-4.7,0.2-6.7-1c-2-1.2-3.5-3.2-4-5.5c-0.3-1.3-0.3-2.6-0.1-4c0.2-1,0.6-1.9,1.1-2.8c1.2-2,3.2-3.5,5.5-4  c1.3-0.3,2.6-0.3,4-0.1c1.4,0.3,2.6,0.9,3.7,1.7c1.6,1.2,2.7,3,3.1,4.9c0.3,1.3,0.3,2.6,0.1,4c-0.2,1-0.6,1.9-1.1,2.8  C119.2,123.5,117.2,125,114.9,125.6z"/>
<radialGradient id="SVGID_2_" cx="137.4917" cy="-490.1261" r="96.6122" gradientTransform="matrix(0.9787 0.2054 -0.2054 0.9787 -123.7515 567.765)" gradientUnits="userSpaceOnUse">
	<stop offset="0" style="stop-color:#2C7EA6"/>
	<stop offset="1" style="stop-color:#36A9E1"/>
</radialGradient>
<path class="st2" d="M193.3,118.1l2.5,1.5l-1.1-2.7c-10.2-24.3-44.3-23.3-56.5-22.2c4.1-26.4,32.1-33.8,32.3-33.9l2.8-0.7l-2.7-1.1  c-24.4-9.9-47.8,14.8-55.6,24.2c-2.4-3.3-4.3-6.8-5.5-10.6l0,0c-6.1-18.4,4.3-36.1,4.4-36.3l1.5-2.5l-2.7,1.1  C88.5,45.3,89.4,79.3,90.6,91.5C67.9,88,59.3,67.2,57.2,60.8c-0.3-1-0.5-1.6-0.5-1.6L56,56.3L54.9,59c-2.9,7.2-3.1,14.9-0.4,23  c0,0,0,0,0,0c5,15,18.2,27.3,24.6,32.6c-21.5,15.8-46.6,1.2-46.8,1.1l-2.5-1.5l1.1,2.7c10.2,24.3,44.3,23.3,56.5,22.2  C83.3,165.5,55.3,172.9,55,173l-2.8,0.7l2.7,1.1c24.4,9.9,47.8-14.8,55.6-24.2c2.4,3.3,4.3,6.8,5.5,10.6c6.1,18.4-4.3,36.1-4.4,36.3  l-1.5,2.5l2.7-1.1c24.3-10.2,23.3-44.3,22.2-56.4c22.7,3.5,31.3,24.3,33.4,30.7c0.3,1,0.5,1.6,0.5,1.6l0.7,2.8l1.1-2.7  c2.9-7.2,3.1-14.9,0.4-23c-5-15-18.2-27.3-24.6-32.6C168,103.4,193,117.9,193.3,118.1z M110.9,125.6c-4.8-1-7.9-5.7-6.9-10.5  c1-4.8,5.7-7.9,10.5-6.9c4.8,1,7.9,5.7,6.9,10.5C120.5,123.5,115.8,126.6,110.9,125.6z"/>
</svg>