<?xml version="1.0" encoding="iso-8859-1"?>
<!-- Generator: Adobe Illustrator 18.1.1, SVG Export Plug-In . SVG Version: 6.00 Build 0)  -->
<svg version="1.1" id="Capa_1" xmlns="http://www.w3.org/2000/svg" xmlns:xlink="http://www.w3.org/1999/xlink" x="0px" y="0px"
	 viewBox="0 0 17.03 17.03" style="enable-background:new 0 0 17.03 17.03;" xml:space="preserve" width="128px" height="128px">
<g>
	<path style="fill:#3273dc;" d="M9.082,6.123c0-0.251,0.204-0.455,0.455-0.455s0.455,0.204,0.455,0.455S9.788,6.578,9.537,6.578
		C9.286,6.578,9.082,6.374,9.082,6.123z M10.749,6.578c0.251,0,0.455-0.204,0.455-0.455S11,5.668,10.749,5.668
		s-0.455,0.204-0.455,0.455S10.498,6.578,10.749,6.578z M8.419,5.848H5.845v0.485h2.574C8.419,6.333,8.419,5.848,8.419,5.848z
		 M15.659,4.891C15.177,6.919,12.565,17.03,8.516,17.03c-4.051,0-6.662-10.112-7.145-12.139C1.306,4.615,1.399,4.326,1.615,4.14
		c0.214-0.185,0.514-0.235,0.778-0.13l0.889,0.129c0,0,3.02-0.645,4.553-3.719C7.967,0.156,8.221-0.006,8.537,0
		c0.296,0.009,0.559,0.188,0.676,0.46c1.305,3.041,4.443,3.679,4.443,3.679s1.005-0.138,1.008-0.14
		c0.262-0.091,0.556-0.032,0.762,0.154C15.632,4.339,15.723,4.622,15.659,4.891z M11.742,5.625c0-0.186-0.151-0.337-0.338-0.337
		h-5.78c-0.187,0-0.338,0.15-0.338,0.337v5.78c0,0.187,0.151,0.338,0.338,0.338h5.78c0.187,0,0.338-0.151,0.338-0.338V5.625z
		 M5.793,11.238h5.444V6.891H5.793C5.793,6.891,5.793,11.238,5.793,11.238z"/>
</g>
</svg>
