<?xml version="1.0" encoding="iso-8859-1"?>
<!-- Generator: Adobe Illustrator 18.0.0, SVG Export Plug-In . SVG Version: 6.00 Build 0)  -->
<!DOCTYPE svg PUBLIC "-//W3C//DTD SVG 1.1//EN" "http://www.w3.org/Graphics/SVG/1.1/DTD/svg11.dtd">
<svg version="1.1" id="Capa_1" xmlns="http://www.w3.org/2000/svg" xmlns:xlink="http://www.w3.org/1999/xlink" x="0px" y="0px"
	 viewBox="0 0 380 380" style="enable-background:new 0 0 380 380;" xml:space="preserve">
<g style="fill: #3273dc">
	<path d="M156.427,151.901c-3.314,0-6,2.687-6,6v24.238h-36.869v-24.238c0-3.313-2.687-6-6-6s-6,2.687-6,6v62.906
		c0,3.313,2.687,6,6,6s6-2.687,6-6V194.14h36.869v26.668c0,3.313,2.686,6,6,6c3.313,0,6-2.687,6-6v-62.906
		C162.427,154.588,159.74,151.901,156.427,151.901z"/>
	<path d="M66.281,153.192H52.002c-3.313,0-6,2.687-6,6v62.906c0,3.313,2.687,6,6,6c3.313,0,6-2.687,6-6v-15.598h8.279
		c18.522,0,30.029-10.3,30.029-26.881C96.311,163.319,84.804,153.192,66.281,153.192z M66.281,194.501h-8.279v-29.309h8.279
		c11.963,0,18.029,4.854,18.029,14.428C84.311,189.494,78.244,194.501,66.281,194.501z"/>
	<path d="M194.263,153.192h-14.279c-3.313,0-6,2.687-6,6v62.906c0,3.313,2.687,6,6,6c3.314,0,6-2.687,6-6v-15.598h8.279
		c18.523,0,30.029-10.3,30.029-26.881C224.292,163.319,212.785,153.192,194.263,153.192z M194.263,194.501h-8.279v-29.309h8.279
		c11.963,0,18.029,4.854,18.029,14.428C212.292,189.494,206.226,194.501,194.263,194.501z"/>
	<path d="M368.317,46.487H11.684C5.24,46.487,0,51.73,0,58.173v263.656c0,6.442,5.24,11.684,11.684,11.684h356.634
		c6.442,0,11.683-5.242,11.683-11.684V58.173C380,51.73,374.76,46.487,368.317,46.487z M358.499,225.895l0.232-0.546v0.801
		C358.652,226.065,358.578,225.979,358.499,225.895z M320.868,79.771c6.844,0,12.387,5.547,12.387,12.387
		c0,6.842-5.543,12.387-12.387,12.387c-6.839,0-12.385-5.545-12.385-12.387C308.483,85.318,314.029,79.771,320.868,79.771z
		 M283.715,79.771c6.839,0,12.386,5.547,12.386,12.387c0,6.842-5.547,12.387-12.386,12.387c-6.839,0-12.387-5.545-12.387-12.387
		C271.328,85.318,276.876,79.771,283.715,79.771z M246.561,79.771c6.839,0,12.381,5.547,12.381,12.387
		c0,6.842-5.542,12.387-12.381,12.387c-6.844,0-12.387-5.545-12.387-12.387C234.175,85.318,239.718,79.771,246.561,79.771z
		 M21.27,314.01V141.424H358.73v68.037c-1.555-2.547-3.877-4.655-6.827-5.905l-20.614-8.726c-1.834-0.778-3.771-1.172-5.754-1.172
		c-5.956,0-11.304,3.54-13.623,9.02l-1.252,2.959c-9.228,0.129-18.383,2.255-26.729,6.193l-2.426-2.107
		c-1.175-1.018-2.498-1.841-3.932-2.447c-1.841-0.779-3.783-1.174-5.772-1.174c-4.276,0-8.341,1.858-11.154,5.099l-14.671,16.915
		c-2.584,2.986-3.855,6.794-3.581,10.735c0.285,3.941,2.085,7.535,5.065,10.115l2.417,2.098c-2.755,8.849-3.562,18.179-2.365,27.344
		l-2.748,1.654c-6.982,4.2-9.242,13.302-5.039,20.293L248.543,315H22.26C21.714,315,21.27,314.556,21.27,314.01z M280.449,259.268
		c5.162-12.192,17.054-20.07,30.295-20.07c4.411,0,8.722,0.878,12.813,2.61c16.697,7.072,24.529,26.408,17.461,43.105
		c-5.166,12.191-17.058,20.068-30.294,20.068c0,0-0.001,0-0.002,0c-4.41,0-8.721-0.878-12.811-2.611
		c-8.089-3.424-14.36-9.793-17.658-17.935C276.955,276.294,277.024,267.356,280.449,259.268z"/>
</g>
<g>
</g>
<g>
</g>
<g>
</g>
<g>
</g>
<g>
</g>
<g>
</g>
<g>
</g>
<g>
</g>
<g>
</g>
<g>
</g>
<g>
</g>
<g>
</g>
<g>
</g>
<g>
</g>
<g>
</g>
</svg>
